<mxfile host="app.diagrams.net" modified="2024-05-14T04:13:13.481Z" agent="Mozilla/5.0 (Macintosh; Intel Mac OS X 10_15_7) AppleWebKit/537.36 (KHTML, like Gecko) Chrome/124.0.0.0 Safari/537.36" version="24.4.0" etag="sy19FPc4VjklvkLZL7zQ" type="github">
  <diagram name="Page-1" id="QnWAY5M6nqwLEffptKCM">
    <mxGraphModel>
      <root>
        <mxCell id="0" />
        <mxCell id="1" parent="0" />
      </root>
    </mxGraphModel>
  </diagram>
</mxfile>
